<svg xmlns="http://www.w3.org/2000/svg" width="576" height="576" viewBox="0 0 6000 6000" shape-rendering="geometricPrecision" image-rendering="optimizeQuality" fill-rule="evenodd" fill="#292929" xmlns:v="https://vecta.io/nano"><path d="M1856.06 4478.67c2.54-9.52 21.79-30.6 29.22-40.11 3.65-4.67 6.57-8.52 10.35-12.76 4.11-4.6 6.55-7.85 10.61-12.5 3.59-4.12 7.17-8.46 10.52-12.59 3.78-4.67 6.99-8.27 10.41-12.69 13.43-17.38 44-49.46 55.11-63.99l55.1-62.21c3.72-4.88 6.53-7.46 11.11-12l44.42-48.02c7.81-8.44 15.79-15.74 24.02-23.97 4.08-4.08 7.81-7.34 11.54-11.57l80.89-84.42 46.22-46.22c7.94-7.94 15.6-14.94 23.13-23.08 73.73-79.71 167.2-168.15 246.15-248l55.07-51.58c3.26-2.84 3.11-3.32 6.71-5.72 7.23 1.68 15.66 9.51 21.59 13.96 7.31 5.49 14.22 10.33 21.32 16.01l166.83 128.25c18.41 14.07 115.01 88.09 122.67 99.52-4.8 7.16-45.37 35.63-55.46 42.31l-146.45 98.85c-5.69 3.73-9.81 5.88-15.31 9.57-5.47 3.67-9.19 6.34-15.07 9.81-48.59 28.69-102.19 64.83-152.82 92.47l-31.85 17.92-15.72 9.17-79.83 42.82c-28.6 14.28-74.39 38.78-99.98 49.33-30.35 12.53-64.95 30.82-102.07 45.46-117.72 46.46-176.74 67.79-304.44 90.17-11.83 2.07-32.33 5.82-43.96 5.82zm-50.74 40.88h-14.19c-3.13-.44-5.78-1.46-9.73-3.56 2.8-10.48 38.29-53.42 45.45-62.97l23.61-31.49 139.33-171.73c2.38-2.54 3.86-3.56 6.16-6.29l18.73-22.15c2.37-2.54 3.85-3.56 6.15-6.29l25.88-29.23c18.17-17.91 33.3-38.95 51.52-56.91l236.39-248.87c25.67-27.75 54.09-54.04 80.9-80.85 9.59-9.59 16.31-18.13 25.77-27.55l159.54-162.2c-6.26-1.67-6.15-3.91-11.43-8.12l-212.96-183.43c-25.81-24.02-53.7-45.57-79.09-70.22-4.38-4.26-6.39-4.81-10.72-8.83-3.42-3.17-5.39-5.83-8.88-8.9l-110.21-99.54c-4.08-3.59-5.64-3.96-9.8-7.98l-39.09-35.56c-3.66-3.69-5.98-6.47-9.93-9.62-30.62-24.43-75.85-69.37-108.26-97.93-43.67-38.49-45.23-26.81-26.07-73.2 12.8-30.99 28.45-57.49 40.08-89.68 12.63-34.95 31.77-96.01 31.77-142.43 0-12.02-20.68-34.84-28.85-44.02-3.14-3.53-3.14-4.41-6.26-7.96l-28.4-28.48c-89.16-89.61-264.36-162.76-364.61-237.97l-16.29-12.16c-59.45-45.37-100.26-110.93-144.22-170.4-87.76-118.76-84.58-108.72-236.14-108.7-34.98 0-67.25 2.46-88.16-25.6-7.8-10.46-16.17-23.46-22.07-34.81-53.59-103.09-74.57-246.73 4.94-343.5 48.31-58.79 120.27-81.94 195.26-62.9 15.31 3.89 25 7.44 37.43 14.13 11.28 6.06 21.4 12.64 31.56 19.99l113.44 90.97c16.85 16.76 37.27 30.22 54.23 47.09 5.43 5.4 9.03 7.21 14.24 12.43 25.36 25.39 55.05 47.03 80.89 71.98 5.37 5.18 6.76 7.08 12.99 11.9 14.88 11.49 71.83 66.19 94.43 85.09l66.72 61.26c25.63 23.75 71.84 62.55 94.22 85.31 18.17 18.48 60.41 52.96 79.99 72.88l26.98 24.57c6.06 4.68 7.81 6.66 13 11.89s8.32 6.61 13.39 11.49l214.18 194.65c4.71 4.37 7.66 8.35 12.6 12.29 6.25 4.99 8.33 6.92 14.02 12.65l79.99 72.88c5.19 5.23 8.32 6.61 13.39 11.49l106.61 97.8c5.62 5.7 8.52 7.44 14.21 12.45l66.69 61.3c5.34 5.43 7.27 7.07 13.14 11.74 4.92 3.93 8.05 7.81 12.59 12.3l160.93 146.59c34.43 31.85 73.06 65.87 105.74 98.67l39.91 36.52c4.58 3.83 8.2 8.07 12.5 12.39 5.4 5.43 9 7.15 14.28 12.38 25.39 25.13 53.26 47.41 79.06 72.03 4.47 4.26 8.93 7.86 13.78 11.11l307.96-283.96c3.17-3.2 5.54-5.94 8.97-8.81l26.89-24.66c16.47-12.71 29.1-29.05 45.2-41.9 3.95-3.15 4.85-3.4 8.74-7.26l99.52-92.45c3.79-3.34 5.06-3.56 8.9-7.1 15.3-14.15 61.79-57.02 69.74-68.9-9.54-5.05-18.61-11.25-28.4-16.04-5.22-2.55-10.85-4.47-16.07-7.04-4.98-2.46-9.35-4.83-14.44-6.89-10.81-4.38-19.69-8.72-30.98-13.45-154.63-64.77-286.67-102.33-470.03-102.33-165.12 0-290.5 23.55-427.89 78.7-35.74 14.35-128.63 57.44-158.7 59.94l-3.51-81.81c.06-13.85-1.83-24.88-1.82-40.84v-104.88c-.06-15.08 1.87-22.6 1.8-37.31-.57-110.24 28.12-187.11 28.43-200.87-5.53-1.29-5.23-2.13-10.17-4.05-21.32-8.24-55-10.2-78.22-14.21-105.66-18.28-225.25-63.08-304.02-133.24-3.33-2.96-3.7-2.68-7-5.44-28.1-23.5-52.88-55.56-70.46-87.74-25.74-47.14-29.61-76.04-29.61-132.15 0-67.65 34.4-129.91 63.73-169.12 17.22-23.03 33.83-41.31 54.03-61.51 24.76-24.77 48.08-48.77 77.05-68.7 6.28-4.32 10.83-8.12 16.79-11.65 38.02-22.55 76.17-40.69 119.24-54.95 29.48-9.76 57.19-18.54 88.27-27.28 145-40.72 301.47-73.98 432.89-146.58 24.11-13.32 48.87-29.93 69.21-48.1 25.72-22.97 53.12-45.14 82.75-63.01 111.6-67.29 228.83-54.24 341.62 2.11 48.38 24.17 91.49 56.64 132.79 91.18 18.24 15.25 41.97 37.27 56.88 55.1 5.48 6.56 7.33 8.95 13.44 15 5.62 5.57 7.68 9.46 13.31 15.13l38.17 45.38c30.35 34.52 53.48 76.66 89 106.53 48.91 41.12 120.35 73.41 178.41 102.44 76.62 38.31 178.88 86.73 226 165.05 59.92 99.59 80.59 235.02 3.66 331.83-12.59 15.84-25.47 28.41-41.41 40.35-68.49 51.3-194.29 84.44-279.06 99.55-32.3 5.76-60.39 9.82-94.94 13.5-14.4 1.53-34.67 2.7-48.8 4.52-50.05 6.47-40.09 2.62-40.4 55.64-.06 11.42 1.58 15.35 1.86 24.8.93 31.33 1.55 66.84 5.01 98.08 4.48 40.46 8.69 206.74 34.04 223.71 7.24-1.94 13.8-10.06 19.29-14.48 34.44-27.73 75.09-69.86 107.18-95.46 27.75-22.14 59.54-56.47 87.36-79.73l176.48-159.47c12.09-9.33 23.2-21.29 34.04-31.72l79.11-71.98c24.05-22.25 74.26-64.98 96-87.09 17.22-17.53 50.8-46.11 71.1-63.99 3.48-3.07 5.46-5.73 8.88-8.89l61.04-54.5c7.13-5.51 10.17-10.13 17.78-16l18-15.77c3.6-3.01 5.55-5.57 8.93-8.84 3.94-3.81 4.92-3.87 8.84-7.15l159.75-142.43c4.33-3.35 5.43-5.2 9.21-8.56l62.24-53.3c31.24-27.48 106.15-52.93 146.16-52.93 51.87 0 109.91 27.13 140.46 67.51 54.15 71.56 62 150.11 44.28 236.32-6.84 33.27-18.49 64.72-31.1 95.11-3.46 8.35-9.48 19.41-14.25 26.63-6.3 9.54-11.24 15.83-17.76 24.9-3.59 5-5.15 7.56-8.88 12.45-3.97 5.21-4.93 6.12-7.87 11.68-44.31 0-144.4-3.28-182.13 2.74-29.23 4.66-46.06 12.81-62.74 29.69-15.39 15.56-29.17 32.43-41.67 50.77-6.41 9.4-12.81 17.92-19.21 27l-58.65 80c-25.3 33.81-56.91 68.97-90.65 94.21-35.53 26.58-74.61 49.89-113.76 71.1l-58.76 33.67c-55.48 33.41-117.65 67.96-166.59 110.7-16.18 14.13-94.6 81.35-94.6 88.48 0 60.19 8.5 113.52 23.78 159.31 7.2 21.57 15.09 46.37 26.74 65.69l16.94 29.28c5.45 9.53 11.57 18.35 14.31 30.13-9.91 14.8-35.42 34.41-48.46 47.52l-107.96 100.01c-13.17 10.06-26.27 26.09-39.85 36.58-24.94 19.26-46.56 43.88-70.88 64.22-22.92 19.17-68.34 63.24-89.38 79.48-16.61 12.83-42.57 39.01-61.45 54.09-4.05 3.23-6.08 6.14-9.97 9.58l-152.05 132.35c-14.41 12.19-47.24 43.6-59.9 52.08 9.11 13.61 40.47 41.37 53.8 54.63 5.43 5.4 7.15 9 12.38 14.28l13.37 13.3 133.33 133.3c5.52 5.45 7.3 8.99 12.39 14.27 4.74 4.93 8.53 8.46 13.37 13.3l79.07 80.91c16.46 17.1 38.71 35.65 52.78 53.87l66.35 68.73c5.67 5.63 7.46 8.54 12.45 14.21l77.3 82.68c17.9 17.59 32.96 38.23 50.7 55.95 20.61 20.59 54.15 62.7 73.85 86.13 48.81 58.08 95.06 118.69 140.15 179.8 4.44 6.02 19.28 26.24 19.28 34.05 0 15.96-128.54-6.02-132.02-6.63-94.02-16.39-212.89-51.22-299.31-89.96l-76.79-33.42c-36.04-14.62-142.78-68.74-183.26-92.26-46.56-27.06-95.23-52.56-140.85-81.34-34.17-21.56-69.3-41.91-102.75-64.33l-230.05-157.45c-11.5-8.31-55.33-42.6-65.02-45.19-11.47 7.68-21.39 15.79-33.06 23.82l-166.73 117.67c-97.58 64.96-196.43 126.91-298.01 185.48l-205.52 105.55c-7.51 3.48-11.19 5.65-19.39 9.06-6.81 2.83-12.89 5.55-19.71 8.73-94.33 44.08-193.98 77.7-295.65 102.52-30.33 7.4-64.63 14.04-96.15 17.61l-77.26 7.26zm1602.52-933.2l-96.39-93.8c-4.63-4.58-7.06-5.51-11.61-9.72l-42.6-42.72c-4.62-4.44-7.01-5.26-11.63-9.7l-42.6-42.72c-4.55-4.21-6.99-5.14-11.61-9.72-14.04-13.89-28.13-29.91-42.64-42.69-4.68-4.12-6.83-5-11.57-9.76-17.51-17.61-34.36-37.38-53.38-53.28-6.82-5.7-18.46-13.06-20.81-21.85 8.67-2.31 12.75-11.05 19.29-16.26 17.08-13.62 32.33-29.34 48.69-43.74l19.55-17.78c3.67-3.23 6.23-6.24 9.76-9.79l19.55-17.78c17-17.14 41.49-35.84 58.69-53.3l263.1-239.94c3.72-3.44 6.01-6.38 9.73-9.82l146.65-132.43c4.51-4.57 5.96-5.06 10.61-8.94 7.67-6.43 11.33-11.39 20.08-17.25 7.16 4.8 14.64 14.99 20.91 21.76 4.24 4.58 5.09 6.96 9.73 11.6l20.39 22.27c19.27 23.01 38.72 46.83 59.65 68.33 4.49 4.61 5.24 6.98 9.74 11.59 17.83 18.31 32.75 39.29 50.7 57.73l29.75 34.24c5.91 7.72 13.25 15.11 19.98 22.68 17.77 19.99 86.61 99.25 97.33 119.52-8.9 13.29-24.05 23-35.12 34.2l-36.5 34.6c-4.27 3.57-5.55 3.9-9.73 8.04l-27.5 25.83c-4.06 3.76-5.76 4.19-9.82 7.95l-55 49.87c-3.6 3.02-5.55 5.57-8.93 8.84l-18.68 16.87c-4.07 3.78-5.75 4.17-9.81 7.96l-139.6 125.26c-41.82 35.02-81.71 72.48-123.37 107.71l-57 49.65c-9.17 8.16-61.38 54.71-67.96 56.46zm-1062.96-902.98c29.83 19.98 51.04 45.71 75.68 64.74l237.63 215.64c6.05 6.1 8.44 7.96 15 13.44 5.46 4.57 9 9.45 14.31 14.13l133.31 122.65c5.68 5 8.59 6.77 14.21 12.45 5.87 5.93 8.44 8.34 14.92 13.51l132.64 123.33 14.15 14.29c5.52 5.31 9.4 7.47 15.15 13.29l189.3 178.65c4.91 4.92 9.14 9.72 14.23 14.21l353.63 339.6c18.39 15.37 154.89 154.73 177.83 177.67l98.68 98.63c5.66 5.63 7.62 9.53 13.28 15.16 33.27 33.1 64.55 68.4 97.81 101.28l66.61 73.81c2.83 2.83 4.52 4.21 6.96 7.27l98.28 115.02c9.66 12.43 46.23 52.91 49 64.77-6.36.14-5.84.94-10.18.78l-37.08-5.07-47.1-9.78c-106.89-22.33-214.93-59.38-313.88-105.61l-150.53-73.44c-42.52-21.58-84.17-46.39-125.5-70.03-11.79-6.75-23.53-14.74-35.65-21.24l-34.34-20.76c-48.89-29.09-156.56-97.47-203.57-132.39l-244.05-175.44c-5.86-4.37-10.2-8.13-15.98-12.46l-110.47-85.06c-44.12-32.72-124.35-98.37-171.36-137.93l-106.45-89.07c-36.91-28.83-96.4-84.37-135.32-117.09l-250.74-223.85c-5.99-5.94-8.26-8.25-14.9-13.55-5.61-4.48-8.83-9.24-14.48-13.96l-87.05-80.03c-11.6-11.16-31.5-33.02-43.96-41.36 12.15-18.15 96.11-108.75 118.83-137.13 5.94-7.43 13.71-15.06 20.24-22.42 23.16-26.06 45.91-56.39 70.24-80.85 17.7-17.8 32.51-38.43 49.78-56.88l49.67-56.98c4.89-5.83 4.61-7.51 11.19-11.92zm1372.25-16c0-10.36 25.54-33.77 34.04-40.62 6.57-5.3 5.64-6.52 13.96-10.93 10.76 7.2 36.7 37.37 51.14 51.96 4.57 4.63 5.51 7.06 9.72 11.61l40.02 43.52c4.91 4.8 5.63 6.45 9.85 11.48 34.19 40.83 57.79 53.69 74.12 116.07 13.22 50.47 32.46 86.85 55.73 132.69l20.71 43.28-127.52-142.67c-4.76-4.89-5.63-6.39-9.88-11.45l-145.63-167.22c-3.94-4.53-5.54-6.91-9.82-11.51-3.46-3.72-6.4-7.73-9.62-11.72-3.1-3.85-6.83-8.29-6.83-14.5zm-1709.98 360.84c3.91-16.79 19.57-40.59 27.83-55.71 18.11-33.15 49.31-95.6 55.02-133.4 3.52-23.35-1-17.77 18.48-45.51l97.23-110.74c9.77-11.69 53.67-59.17 62.74-65.24 8.51 1.98 54.48 39.98 58.66 46.21-1.77 6.62-4.91 7.11-9.31 12.02l-148.62 171.33c-6 7.5-13.91 14.93-20.08 22.58l-29.53 34.46c-15.96 17.97-98.7 114.82-112.41 124zm-26.66-476.38c-29.37 0-51.55-23.51-51.55-44.44 0-18.49-.02-29.91 15.47-44.96 19.68-19.12 48.07-15.85 68.4.2 35.51 28.06 13.91 89.2-32.32 89.2zm2026.38-51.55c0-17.02 3-27.28 16.49-38.61 53.61-45.05 113.31 29.94 70.22 73.77-35.99 36.6-86.71 7.05-86.71-35.16zm-1477.12-110.21c-2.46-29.63-3.66-41-3.62-71.16.02-9.77 1.41-11.44 1.85-19.48.76-14.12-.98-27.98 1.02-41.65 3.88-26.51-7.49-30.06 39.62-45.7 41.43-13.76 88.76-24.4 135.18-33.68 152.36-30.48 207.43-33.63 362.76-33.63 71.33 0 170.02 2.66 233.93 18.48 48.97 12.12 136.48 50.12 170.03 84.15l25.78 23.99c7.52 7.2 6.94 4.2 7.64 17.24l10.55 240.09c0 13.62-2.62 20.8-3.56 31.99l-56.11-23.88c-40.32-16.07-75.34-29.43-116.96-43.02-172.42-56.3-334.27-57.84-513.06-46.87-34.19 2.1-68.76 9.79-99.4 16.15-35.58 7.38-164.14 46.11-185 47.85-4.54-9.45-7.11-53.09-7.11-69.32 17.09-3.98 84.32-28.36 111.61-35.93 37.37-10.36 76.53-21.62 118.44-29.09 164.94-29.4 413.54-42.89 580.29 6.57l73.09 21.12c-16.7-24.93-216.86-70.46-273.75-72.87-35.81-1.52-70.44-5.34-110.19-5.34-202.24 0-265.6 7.13-451.15 53.67l-51.89 10.32zm-949.2-161.75c0-40.57 30.33-54.95 67.11-47.57 17.93 3.6 29.79 26.09 33.84 42.65 8.15 33.3-37.29 58.25-54.74 58.25-25.22 0-46.22-27.44-46.22-53.33zm2774.72-1.78c0-44.13 75.05-72.59 98.37-18.38 8.62 20.04 3.83 41.58-10.79 56.19-6.14 6.14-6.71 7.43-15.23 11.43-47.69 22.41-72.35-28.57-72.35-49.24zm350.17-280.85c0-18.8 6.05-26.73 16.4-36.93 54.41-53.58 112.88 33.74 70.34 73.9-27.54 26-86.74 8.98-86.74-36.97zm-3418.19 47.99c-18.89 0-27.35.31-43.16-15.5-22.38-22.38-21.86-44.74-2.56-67.55 44.88-53.03 120.66 13.83 78.05 67.39-5.86 7.37-19.7 15.67-32.33 15.67zM3822 1867.48c-2.76-10.35-34.9-48.84-41.26-58.28l-28.42-46.24c-3.39-5.63-5.45-10.38-8.88-16.01l-17.44-32.33-8.3-16.58c-9.75-19.48-33.78-68.86-37.9-86.53l121.46 56.3c29.7 13.76 58.16 26.19 87.71 42.03 6.25 3.35 9.18 5.52 16 8.9 16.92 8.37 33.13 18.78 47.84 30.37 39.98 31.5 69.85 72.2 85.83 120.36 21.76 65.57 19.63 130.34-15.41 186.78-3.42 5.51-6.15 9.69-10.58 14.3-28.22 29.46-55.14 43.46-94.89 59.75-12.32 5.05-25.31 9.69-37.35 14.2-12.22 4.58-26.32 9.27-38.85 12.7-13.59 3.72-25.25 7.66-40.17 11.38-66.26 16.5-86.12 17.72-153.08 26.45-6.62.86-16.78.67-24.89 1.76l-98.33 4.94c-11.94.06-12.02-.44-19-5.89-18.23-14.26-48.52-37.01-69.79-45.75-3.96-1.63-6.95-1.77-10.67-3.56v-8.89c7.15-3.78 17.19-5.96 25.91-9.64 9.09-3.84 15.83-7.09 24.44-11.11l192.14-92.27c17.53-7.24 31.53-14.36 49.53-21.57 18.16-7.27 33.61-13.06 53.17-17.93 13.76-3.43 42.56-5.73 54.89-10.89 2.52-1.06 2.06-.96 3.42-1.91-36.76 0-73.39 1.02-104.13 7.85-59.28 13.18-114.4 33.9-171.15 52.81-73.35 24.44-195.04 72.37-275.26 61.5-15.39-2.09-33-3.15-49.71-5.39-20.29-2.72-56.64-6.73-78.73-6.59-15.44.09-73.43-2.15-80.01-5.31 2.06-7.71 19.86-17.4 26.31-21.69l88.86-58.68c19.93-13.28 37.29-26.87 56.49-41.27 10.25-7.69 18.16-13.84 27.98-21.79l105.65-91.66c8.87-8.93 17.53-14.66 25.76-24.01l34.67-38.21c3.87-4.15 7.78-9.5 11.11-13.77 9.02-11.55 37.75-45.19 40.89-58.66-7.48 1.74-11.61 6.44-17.25 11.19l-57.83 55.93c-5.67 5.74-9.71 7.84-15.15 13.29-5.73 5.74-9.52 8.06-15.08 13.36-5.01 4.76-10.7 9.48-16.3 13.91-11.19 8.85-20.43 16.69-31.75 25.13-44.66 33.32-89.4 64.98-137.37 93.7-61.35 36.73-122.98 69.67-188 99.96-26.55 12.37-54.02 24.26-81.83 33.71-29.75 10.11-55.9 18.68-88.35 25.41-17.31 3.59-83.49 16.08-100.41 13.69-18.48-2.62-30.83-5.32-45.74-11.26-7.4-2.94-14.17-4.94-21.04-7.41-7.84-2.81-13.38-5.46-21.78-8.44-19.11-6.76-63-25.74-79.65-35.88-25.43-15.5-45.21-24.9-72.54-43-62.38-41.31-121.69-103.29-139.01-177.39l-6.74-23.48c0 71.17 15.36 110.94 54.09 162.78 25.07 33.55 96.26 98.37 105.89 112.74-35.31 0-72.2-3.63-104.73-7.25-47.72-5.3-91.03-19.46-134.13-34.73l-39.63-17.24c-118.98-59.53-209.37-152.7-120.39-286.33 19.15-28.75 66.63-85 92.4-104.91l48.39-36.93c5.96-3.57 12.33-7.31 18.1-10.34 73.61-38.68 213.87-69.81 297.54-97.07 56.94-18.54 115.44-32.31 170.98-54.76 7.19-2.9 14.26-5.49 20.58-7.86 7.2-2.7 13.65-5.59 22.85-5.59-7.98 11.91-49.81 48.11-65.76 60.44-5.26 4.06-11.16 9.03-16.46 13.76-41.49 37-83.73 61.97-131.42 90.77-19.43 11.73-41.19 21.69-60.44 33.76-5.81 3.64-15.55 7.54-17.43 14.57 16.74 0 42.85-12.53 56.63-18.03 38.06-15.18 78.32-31.92 113.68-53.42 4.51-2.74 8.36-4.34 12.7-6.85l24.63-14.47c16.1-9.69 29.85-18.74 45.48-29.17 44.9-29.94 86.03-63.46 124.16-101.59l53.14-58.84c16.65-20.8 34.51-39.3 53.49-58.49l19.65-17.68c37.31-31.56 77.56-47.98 132.23-56.19 52.3-7.85 132.07 24.27 174 49.3 30.87 18.43 61.4 37.04 88.31 61.01 4.07 3.63 5.87 4.37 9.79 7.99l75.55 75.54c26.79 26.64 69.92 83.8 93.22 114.75 47.39 62.93 83.16 141.74 131.56 206.17 5.76 7.68 9.56 14.02 15.48 21.85 21.35 28.24 42.19 57.04 67.23 82.09 9.51 9.51 29.27 31.48 38.66 37.77z"/><path d="M3822.01 1867.48v1.78l2.07-1.48z"/></svg>